<?xml version="1.0" encoding="UTF-8"?>
<!DOCTYPE svg PUBLIC "-//W3C//DTD SVG 1.1//EN" "http://www.w3.org/Graphics/SVG/1.1/DTD/svg11.dtd">
<svg xmlns="http://www.w3.org/2000/svg" version="1.1" width="512px" height="512px" style="shape-rendering:geometricPrecision; text-rendering:geometricPrecision; image-rendering:optimizeQuality; fill-rule:evenodd; clip-rule:evenodd" xmlns:xlink="http://www.w3.org/1999/xlink">
<g><path style="opacity:0.976" fill="#336ce5" d="M 253.5,63.5 C 263.486,64.3236 268.486,69.8236 268.5,80C 266.22,90.7355 265.387,101.569 266,112.5C 267.993,114.818 269.159,117.484 269.5,120.5C 304.471,124.654 334.471,138.987 359.5,163.5C 364.478,162.397 369.145,160.564 373.5,158C 380.9,149.93 388.9,142.596 397.5,136C 407.546,133.024 413.546,136.69 415.5,147C 414.837,152.004 412.504,156.004 408.5,159C 400.234,163.604 392.234,168.604 384.5,174C 381.389,177.556 379.056,181.556 377.5,186C 395.933,215.567 403.433,247.733 400,282.5C 402.795,284.293 405.295,286.46 407.5,289C 417.372,291.267 427.372,292.601 437.5,293C 451.087,296.416 454.421,304.082 447.5,316C 444.533,317.7 441.367,318.867 438,319.5C 426.48,315.438 414.813,311.771 403,308.5C 399.948,309.711 396.781,310.545 393.5,311C 381.968,343.874 361.468,369.707 332,388.5C 331.174,393.589 331.508,398.589 333,403.5C 336.94,410.436 341.273,417.103 346,423.5C 351.135,431.152 350.635,438.319 344.5,445C 337.177,448.677 331.011,447.177 326,440.5C 322.062,429.353 317.728,418.353 313,407.5C 310.079,405.623 307.246,403.623 304.5,401.5C 271.842,412.147 239.176,412.147 206.5,401.5C 203.792,403.611 200.959,405.611 198,407.5C 193.275,418.342 188.941,429.342 185,440.5C 177.965,449.269 170.632,449.602 163,441.5C 160.56,434.359 161.56,427.693 166,421.5C 174.273,412.461 179.107,401.961 180.5,390C 150.82,370.975 129.987,344.808 118,311.5C 112.973,309.831 107.806,309.331 102.5,310C 92.7261,313.369 82.8928,316.536 73,319.5C 62.6145,318.378 58.2811,312.711 60,302.5C 63.0739,296.709 67.9072,293.543 74.5,293C 83.5795,292.709 92.5795,291.709 101.5,290C 105.03,287.295 108.364,284.462 111.5,281.5C 107.711,247.277 114.711,215.444 132.5,186C 131.376,180.759 128.71,176.426 124.5,173C 115.114,167.612 106.281,161.446 98,154.5C 93.2966,140.198 98.4633,134.031 113.5,136C 115.167,137 116.833,138 118.5,139C 124.833,146.667 131.833,153.667 139.5,160C 143.318,160.847 146.984,162.014 150.5,163.5C 175.293,138.614 205.293,124.114 240.5,120C 243.744,115.686 245.41,110.852 245.5,105.5C 244.397,95.1433 243.563,84.81 243,74.5C 244.684,68.9845 248.184,65.3178 253.5,63.5 Z M 238.5,171.5 C 219.266,172.753 207.932,182.753 204.5,201.5C 196.211,195.718 188.045,189.718 180,183.5C 180.195,181.255 181.362,179.422 183.5,178C 199.354,165.242 217.354,157.075 237.5,153.5C 238.496,159.463 238.829,165.463 238.5,171.5 Z M 294.5,209.5 C 287.5,202.167 280.5,194.833 273.5,187.5C 273.048,177.654 272.382,167.82 271.5,158C 271.309,156.027 271.976,154.527 273.5,153.5C 295.774,157.745 315.107,167.578 331.5,183C 319.137,191.843 306.804,200.676 294.5,209.5 Z M 188.5,235.5 C 188.5,244.167 188.5,252.833 188.5,261.5C 173.417,265.082 158.417,269.082 143.5,273.5C 141.751,250.17 146.751,228.504 158.5,208.5C 168.573,217.517 178.573,226.517 188.5,235.5 Z M 337.5,265.5 C 337.662,260.818 336.495,256.485 334,252.5C 330.041,246.708 325.541,241.374 320.5,236.5C 330.806,227.032 341.306,217.699 352,208.5C 364.236,228.45 369.069,250.116 366.5,273.5C 356.853,270.672 347.186,268.005 337.5,265.5 Z M 319.5,298.5 C 332.792,300.259 345.959,302.592 359,305.5C 351.826,327.368 338.493,344.702 319,357.5C 312.638,344.104 306.805,330.438 301.5,316.5C 307.833,310.833 313.833,304.833 319.5,298.5 Z M 188.5,299.5 C 189.017,308.828 189.517,318.161 190,327.5C 192.448,333.266 196.615,334.933 202.5,332.5C 199.957,341.126 196.623,349.459 192.5,357.5C 173.481,344.934 159.814,328.101 151.5,307C 151.905,306.055 152.572,305.388 153.5,305C 165.106,302.712 176.772,300.878 188.5,299.5 Z M 273.5,344.5 C 278.837,353.206 283.837,362.206 288.5,371.5C 277.944,375.844 266.944,377.511 255.5,376.5C 249.833,376.333 244.167,376.167 238.5,376C 233.16,374.766 227.827,373.599 222.5,372.5C 223.538,369.419 224.872,366.419 226.5,363.5C 238.206,367.369 248.872,365.536 258.5,358C 263.669,353.663 268.669,349.163 273.5,344.5 Z"/></g>
<g><path style="opacity:0.948" fill="#fafcfd" d="M 238.5,171.5 C 251.046,172.605 261.712,177.772 270.5,187C 271.448,187.483 272.448,187.649 273.5,187.5C 280.5,194.833 287.5,202.167 294.5,209.5C 296.725,213.898 299.559,217.898 303,221.5C 307.779,226.279 312.613,231.113 317.5,236C 318.448,236.483 319.448,236.649 320.5,236.5C 325.541,241.374 330.041,246.708 334,252.5C 336.495,256.485 337.662,260.818 337.5,265.5C 336.176,271.305 334.343,276.972 332,282.5C 328.368,287.134 324.368,291.467 320,295.5C 319.517,296.448 319.351,297.448 319.5,298.5C 313.833,304.833 307.833,310.833 301.5,316.5C 300.448,316.351 299.448,316.517 298.5,317C 290.667,324.833 282.833,332.667 275,340.5C 274.209,341.745 273.709,343.078 273.5,344.5C 268.669,349.163 263.669,353.663 258.5,358C 248.872,365.536 238.206,367.369 226.5,363.5C 226.631,362.761 226.464,362.094 226,361.5C 213.97,353.448 207.637,342.114 207,327.5C 205.624,328.705 204.458,330.038 203.5,331.5C 202.833,331.5 202.5,331.833 202.5,332.5C 196.615,334.933 192.448,333.266 190,327.5C 189.517,318.161 189.017,308.828 188.5,299.5C 188.783,298.711 189.283,298.044 190,297.5C 190.167,291.5 190.333,285.5 190.5,279.5C 190.496,273.128 189.829,267.128 188.5,261.5C 188.5,252.833 188.5,244.167 188.5,235.5C 189.117,235.389 189.617,235.056 190,234.5C 190.333,225.167 190.667,215.833 191,206.5C 195.379,201.328 199.879,201.328 204.5,206.5C 205.666,204.833 205.666,203.166 204.5,201.5C 207.932,182.753 219.266,172.753 238.5,171.5 Z"/></g>
<g><path style="opacity:1" fill="#1caaca" d="M 232.5,185.5 C 240.704,184.462 248.371,185.962 255.5,190C 265.068,198.898 273.901,208.398 282,218.5C 283.31,225.871 282.31,232.871 279,239.5C 273.532,245.969 267.699,252.136 261.5,258C 259.833,258.667 258.167,258.667 256.5,258C 245.333,246.833 234.167,235.667 223,224.5C 213.176,208.13 216.343,195.13 232.5,185.5 Z"/></g>
<g><path style="opacity:1" fill="#5269ac" d="M 203.5,223.5 C 205.199,223.34 206.866,223.506 208.5,224C 222,237.5 235.5,251 249,264.5C 249.667,266.167 249.667,267.833 249,269.5C 235.64,283.105 222.14,296.605 208.5,310C 205.937,310.918 203.77,310.418 202,308.5C 201.333,280.833 201.333,253.167 202,225.5C 202.717,224.956 203.217,224.289 203.5,223.5 Z"/></g>
<g><path style="opacity:1" fill="#54caa5" d="M 294.5,229.5 C 304.477,237.31 313.31,246.31 321,256.5C 324.437,264.613 324.103,272.613 320,280.5C 298.833,303 277,324.833 254.5,346C 236.59,353.995 224.424,348.829 218,330.5C 216.699,324.078 217.699,318.078 221,312.5C 243,290.5 265,268.5 287,246.5C 290.594,241.312 293.094,235.646 294.5,229.5 Z"/></g>
</svg>
